<svg xmlns="http://www.w3.org/2000/svg" viewBox="0 0 128 128" role="img" aria-label="lobby avatar"><defs><clipPath id="clip-lobby"><rect width="128" height="128" rx="28"/></clipPath><radialGradient id="bm-lobby" gradientUnits="userSpaceOnUse" cx="10" cy="10" r="88"><stop offset="0" stop-color="#e05fc0" stop-opacity="0.42"/><stop offset="1" stop-color="#e05fc0" stop-opacity="0"/></radialGradient><radialGradient id="bc-lobby" gradientUnits="userSpaceOnUse" cx="118" cy="118" r="88"><stop offset="0" stop-color="#4fc9e8" stop-opacity="0.42"/><stop offset="1" stop-color="#4fc9e8" stop-opacity="0"/></radialGradient></defs><g clip-path="url(#clip-lobby)"><rect width="128" height="128" fill="#26242e"/><rect width="128" height="128" fill="url(#bm-lobby)"/><rect width="128" height="128" fill="url(#bc-lobby)"/><g shape-rendering="crispEdges"><rect x="48" y="32" width="16" height="16" fill="#8962e7"/><rect x="64" y="32" width="16" height="16" fill="#6544b4"/><rect x="32" y="48" width="16" height="16" fill="#8962e7"/><rect x="48" y="48" width="16" height="16" fill="#e05fc0"/><rect x="64" y="48" width="16" height="16" fill="#4fc9e8"/><rect x="80" y="48" width="16" height="16" fill="#6544b4"/><rect x="32" y="64" width="16" height="16" fill="#6544b4"/><rect x="48" y="64" width="16" height="16" fill="#4fc9e8"/><rect x="64" y="64" width="16" height="16" fill="#e05fc0"/><rect x="80" y="64" width="16" height="16" fill="#8962e7"/><rect x="32" y="80" width="16" height="16" fill="#8962e7"/><rect x="48" y="80" width="16" height="16" fill="#6544b4"/><rect x="64" y="80" width="16" height="16" fill="#8962e7"/><rect x="80" y="80" width="16" height="16" fill="#6544b4"/></g></g></svg>
