<svg xmlns="http://www.w3.org/2000/svg" viewBox="0 0 128 128" role="img" aria-label="exporter avatar"><defs><clipPath id="clip-exporter"><rect width="128" height="128" rx="28"/></clipPath><radialGradient id="bm-exporter" gradientUnits="userSpaceOnUse" cx="10" cy="10" r="88"><stop offset="0" stop-color="#e05fc0" stop-opacity="0.42"/><stop offset="1" stop-color="#e05fc0" stop-opacity="0"/></radialGradient><radialGradient id="bc-exporter" gradientUnits="userSpaceOnUse" cx="118" cy="118" r="88"><stop offset="0" stop-color="#4fc9e8" stop-opacity="0.42"/><stop offset="1" stop-color="#4fc9e8" stop-opacity="0"/></radialGradient></defs><g clip-path="url(#clip-exporter)"><rect width="128" height="128" fill="#26242e"/><rect width="128" height="128" fill="url(#bm-exporter)"/><rect width="128" height="128" fill="url(#bc-exporter)"/><g shape-rendering="crispEdges"><rect x="48" y="32" width="16" height="16" fill="#ef8b3a"/><rect x="64" y="32" width="16" height="16" fill="#eceaf4"/><rect x="32" y="48" width="16" height="16" fill="#ef8b3a"/><rect x="48" y="48" width="16" height="16" fill="#ba6622"/><rect x="64" y="48" width="16" height="16" fill="#ef8b3a"/><rect x="80" y="48" width="16" height="16" fill="#ba6622"/><rect x="48" y="64" width="16" height="16" fill="#ef8b3a"/><rect x="64" y="64" width="16" height="16" fill="#ba6622"/><rect x="32" y="80" width="16" height="16" fill="#b3b0c7"/><rect x="48" y="80" width="16" height="16" fill="#b3b0c7"/><rect x="64" y="80" width="16" height="16" fill="#b3b0c7"/><rect x="80" y="80" width="16" height="16" fill="#b3b0c7"/></g></g></svg>
